<?xml version="1.0" encoding="UTF-8"?>
<svg width="768px" height="768px" viewBox="0 0 768 768" version="1.1" xmlns="http://www.w3.org/2000/svg" xmlns:xlink="http://www.w3.org/1999/xlink">
    <!-- Generator: Sketch 46.2 (44496) - http://www.bohemiancoding.com/sketch -->
    <title>earth</title>
    <desc>Created with Sketch.</desc>
    <defs></defs>
    <g id="Page-1" stroke="none" stroke-width="1" fill="none" fill-rule="evenodd">
        <g id="Desktop" transform="translate(-136.000000, -120.000000)" fill-rule="nonzero">
            <g id="earth" transform="translate(136.000000, 120.000000)">
                <g id="Group" fill="#3D99E2">
                    <circle id="Oval" cx="383.991" cy="383.991" r="383.991"></circle>
                    <circle id="Oval" cx="383.991" cy="383.991" r="383.991"></circle>
                </g>
                <circle id="Oval" fill="#5AAAE7" cx="219.177" cy="214.644" r="130.668"></circle>
                <path d="M642.4995,100.0485 C704.6505,168.279 742.5465,258.984 742.5465,358.5465 C742.5465,570.6225 570.624,742.545 358.548,742.545 C258.9855,742.545 168.2775,704.646 100.05,642.498 C170.2815,719.604 271.4865,768 384,768 C596.0775,768 768,596.0775 768,384.0015 C768,271.485 719.6025,170.2815 642.4995,100.0485 Z" id="SVGCleanerId_0" fill="#1D81CD"></path>
                <path d="M642.4995,100.0485 C704.6505,168.279 742.5465,258.984 742.5465,358.5465 C742.5465,570.6225 570.624,742.545 358.548,742.545 C258.9855,742.545 168.2775,704.646 100.05,642.498 C170.2815,719.604 271.4865,768 384,768 C596.0775,768 768,596.0775 768,384.0015 C768,271.485 719.6025,170.2815 642.4995,100.0485 Z" id="SVGCleanerId_0_1_" fill="#1D81CD"></path>
                <path d="M704.952,594.8475 C744.795,534.324 768,461.8785 768,383.9985 C768,171.9225 596.0775,0 383.9985,0 C360.9945,0 338.466,2.0295 316.575,5.907 L296.385,30.6195 L100.047,142.641 L50.3865,335.481 L126.7185,476.2005 L95.5935,512.2965 L186.978,713.646 C211.578,728.3805 237.9645,740.43 265.7355,749.4135 L281.8125,749.151 L430.2195,641.7405 L264.312,542.49 L196.947,462.003 L130.587,471.8325 L59.3295,335.1795 L107.8605,285.6945 L162.2445,316.7385 L330.6465,230.6115 L288.576,116.895 L332.2455,100.0455 L356.721,97.749 L375.5055,177.912 L403.716,110.433 L405.441,79.149 L427.9155,65.169 L520.5945,124.1355 L532.9155,260.7675 L561.087,291.021 L596.6325,201.672 L674.967,185.3385 L656.688,261.4005 L608.613,261.129 L509.451,409.95 L596.973,514.4895 L710.4135,466.998 L704.952,594.8475 Z" id="Shape" fill="#8FCC05"></path>
                <g id="Group" transform="translate(88.500000, 82.500000)" fill="#9CDD03">
                    <path d="M0.0135,132.141 C0.0135,158.9955 8.1255,183.954 22.0185,204.714 L73.7445,234.243 L242.1465,148.116 L200.076,34.3995 L211.9155,29.8305 C189.609,12.096 161.3955,1.473 130.683,1.473 C124.341,1.473 118.1115,1.95 112.0125,2.8215 L28.8885,50.247 C10.839,72.6555 0.0135,101.1285 0.0135,132.141 Z" id="Shape"></path>
                    <polygon id="Shape" points="60.0975 276.0225 130.68 360.9915 42.0885 312.0045"></polygon>
                </g>
                <path d="M767.862,373.7715 C767.832,372.666 767.7735,371.568 767.736,370.464 C767.6565,368.1765 767.5785,365.889 767.46,363.612 C767.391,362.2905 767.292,360.975 767.2095,359.658 C767.0805,357.609 766.9575,355.56 766.797,353.5185 C766.6875,352.1175 766.551,350.7255 766.425,349.329 C766.251,347.379 766.0785,345.4305 765.8745,343.4895 C765.7245,342.0585 765.552,340.6365 765.3855,339.21 C765.1665,337.3155 764.9445,335.421 764.697,333.534 C764.5065,332.094 764.298,330.6585 764.0925,329.2245 C763.827,327.363 763.5555,325.503 763.2645,323.6505 C763.0365,322.2135 762.795,320.784 762.552,319.3515 C762.24,317.511 761.9205,315.6735 761.583,313.8435 C761.319,312.42 761.0445,310.9995 760.7655,309.582 C760.407,307.752 760.0365,305.9265 759.651,304.1055 C759.354,302.706 759.051,301.3095 758.7375,299.916 C758.3295,298.0875 757.9065,296.2635 757.4715,294.444 C757.143,293.0745 756.813,291.705 756.471,290.3415 C756.012,288.507 755.5335,286.677 755.0475,284.8515 C754.6935,283.5225 754.338,282.1965 753.9705,280.872 C753.453,279.012 752.9145,277.1595 752.3685,275.31 C751.9935,274.041 751.623,272.769 751.2375,271.506 C750.6555,269.6055 750.0495,267.714 749.4405,265.8255 C749.0535,264.627 748.6725,263.427 748.275,262.233 C747.6165,260.262 746.9295,258.303 746.2395,256.3455 C745.8555,255.255 745.482,254.16 745.0875,253.0755 C744.3225,250.9665 743.526,248.8725 742.7235,246.78 C742.3725,245.8605 742.0335,244.9365 741.6735,244.0215 C740.7225,241.593 739.737,239.1825 738.738,236.7795 C738.504,236.217 738.282,235.647 738.045,235.086 C734.2425,226.0575 730.1055,217.206 725.6475,208.545 C725.412,208.0875 725.1645,207.636 724.9275,207.1785 C723.684,204.786 722.424,202.4025 721.1325,200.04 C720.759,199.359 720.3735,198.6885 719.997,198.009 C718.8165,195.8805 717.627,193.758 716.4075,191.6565 C715.9575,190.8795 715.4925,190.1115 715.0365,189.339 C713.8635,187.3485 712.6815,185.364 711.474,183.3975 C710.97,182.5785 710.4555,181.767 709.947,180.951 C708.7575,179.046 707.5575,177.1455 706.3365,175.2645 C705.795,174.4305 705.2445,173.604 704.697,172.7745 C703.476,170.9265 702.2475,169.086 700.995,167.2605 C700.4235,166.4295 699.849,165.6015 699.2715,164.775 C698.0115,162.9675 696.7395,161.169 695.451,159.3855 C694.863,158.571 694.2705,157.761 693.675,156.951 C692.3655,155.1675 691.0395,153.396 689.6985,151.6335 C689.103,150.849 688.503,150.0675 687.9015,149.289 C686.529,147.5145 685.1415,145.755 683.739,144.006 C683.145,143.2635 682.5495,142.524 681.951,141.786 C680.505,140.0085 679.038,138.2475 677.5605,136.497 C676.983,135.813 676.4085,135.126 675.828,134.445 C674.2845,132.642 672.72,130.8585 671.1435,129.084 C670.605,128.478 670.074,127.8705 669.5325,127.2675 C667.8585,125.4075 666.162,123.5685 664.452,121.7415 C663.987,121.2465 663.5295,120.744 663.0645,120.2505 C661.1985,118.278 659.307,116.328 657.399,114.3945 C657.075,114.0645 656.754,113.73 656.4285,113.4 C654.219,111.1755 651.9855,108.9765 649.722,106.8075 C649.6905,106.7775 649.6605,106.7475 649.629,106.7175 C647.28,104.4675 644.9025,102.246 642.4965,100.0545 C704.6475,168.285 742.545,258.99 742.545,358.5525 C742.545,415.191 730.275,468.96 708.2595,517.3605 L704.9505,594.852 C709.9125,587.3145 714.6165,579.5895 719.0505,571.6935 C719.0895,571.6245 719.127,571.5555 719.166,571.4865 C722.4225,565.6785 725.5305,559.776 728.49,553.7865 C728.562,553.641 728.634,553.497 728.706,553.3515 C729.648,551.436 730.5735,549.513 731.4855,547.581 C731.613,547.314 731.7345,547.044 731.8605,546.7785 C734.5215,541.1025 737.046,535.3485 739.4325,529.527 C739.674,528.9375 739.917,528.348 740.1555,527.7555 C740.862,526.0095 741.5565,524.259 742.2375,522.501 C742.473,521.892 742.6995,521.28 742.932,520.6725 C744.183,517.3875 745.392,514.0815 746.5545,510.7545 C746.7735,510.126 747.0015,509.502 747.2175,508.8705 C747.762,507.2895 748.287,505.6995 748.8105,504.108 C749.1465,503.088 749.4765,502.0695 749.805,501.0465 C750.291,499.527 750.774,498.006 751.242,496.4775 C751.6155,495.2565 751.9725,494.031 752.3355,492.8055 C753.015,490.503 753.6735,488.1915 754.3095,485.8695 C754.695,484.467 755.079,483.0645 755.4495,481.656 C755.799,480.324 756.1365,478.986 756.4725,477.648 C756.837,476.196 757.191,474.7395 757.539,473.2815 C757.8345,472.041 758.133,470.8005 758.418,469.5555 C758.9865,467.058 759.5355,464.553 760.0545,462.0375 C760.2585,461.0505 760.443,460.059 760.6395,459.0705 C761.001,457.251 761.3535,455.43 761.6865,453.6015 C761.892,452.4795 762.0915,451.356 762.2865,450.2295 C762.6165,448.3365 762.9285,446.439 763.2285,444.5355 C763.374,443.619 763.527,442.707 763.6665,441.789 C764.076,439.0755 764.457,436.353 764.8095,433.62 C764.919,432.7695 765.015,431.9145 765.12,431.064 C765.3735,428.9925 765.612,426.915 765.8325,424.8345 C765.9345,423.873 766.035,422.91 766.1295,421.9455 C766.362,419.577 766.5735,417.204 766.761,414.8235 C766.803,414.297 766.854,413.772 766.893,413.2455 C767.109,410.37 767.289,407.484 767.442,404.5905 C767.4855,403.776 767.5185,402.96 767.556,402.144 C767.6595,399.9225 767.7435,397.6995 767.8095,395.469 C767.835,394.6095 767.8605,393.7515 767.8815,392.892 C767.949,389.937 767.994,386.976 767.994,384.003 C768,380.58 767.952,377.1705 767.862,373.7715 Z" id="Shape" fill="#86BC06"></path>
                <path d="M281.814,749.1525 L297.6165,737.715 C255.8385,731.052 216.3135,717.654 180.18,698.664 L186.969,713.6205 C187.308,713.823 187.6455,714.027 187.9845,714.2295 C190.3605,715.6425 192.756,717.0315 195.165,718.3935 C195.7905,718.7475 196.4145,719.1045 197.0445,719.4555 C199.608,720.8865 202.1895,722.286 204.7875,723.66 C205.2615,723.9105 205.731,724.167 206.2065,724.4145 C209.1465,725.952 212.106,727.4535 215.088,728.9175 C215.2185,728.982 215.3475,729.048 215.4765,729.1125 C231.627,737.0115 248.412,743.811 265.7385,749.4135 L281.814,749.1525 Z" id="Shape" fill="#8FCC05"></path>
            </g>
        </g>
    </g>
</svg>